<svg width="95" height="31" viewBox="0 0 95 31" fill="none" xmlns="http://www.w3.org/2000/svg">
<path d="M10.7273 0.727272H13.5455V17.3636C13.5455 18.8485 13.2727 20.1098 12.7273 21.1477C12.1818 22.1856 11.4129 22.9735 10.4205 23.5114C9.42803 24.0492 8.25758 24.3182 6.90909 24.3182C5.63636 24.3182 4.50379 24.0871 3.51136 23.625C2.51894 23.1553 1.73864 22.4886 1.17045 21.625C0.602273 20.7614 0.318182 19.7348 0.318182 18.5455H3.09091C3.09091 19.2045 3.25379 19.7803 3.57955 20.2727C3.91288 20.7576 4.36742 21.1364 4.94318 21.4091C5.51894 21.6818 6.17424 21.8182 6.90909 21.8182C7.7197 21.8182 8.40909 21.6477 8.97727 21.3068C9.54545 20.9659 9.97727 20.4659 10.2727 19.8068C10.5758 19.1402 10.7273 18.3258 10.7273 17.3636V0.727272ZM57.017 6.54545H59.6989V25.2727C59.6989 26.3485 59.5133 27.2803 59.142 28.0682C58.7784 28.8561 58.2254 29.4659 57.483 29.8977C56.7481 30.3295 55.8201 30.5455 54.6989 30.5455C54.608 30.5455 54.517 30.5455 54.4261 30.5455C54.3352 30.5455 54.2443 30.5455 54.1534 30.5455V28.0455C54.2443 28.0455 54.3277 28.0455 54.4034 28.0455C54.4792 28.0455 54.5625 28.0455 54.6534 28.0455C55.4716 28.0455 56.0701 27.803 56.4489 27.3182C56.8277 26.8409 57.017 26.1591 57.017 25.2727V6.54545ZM58.3352 3.63636C57.8125 3.63636 57.3617 3.45833 56.983 3.10227C56.6117 2.74621 56.4261 2.31818 56.4261 1.81818C56.4261 1.31818 56.6117 0.890151 56.983 0.53409C57.3617 0.17803 57.8125 0 58.3352 0C58.858 0 59.3049 0.17803 59.6761 0.53409C60.0549 0.890151 60.2443 1.31818 60.2443 1.81818C60.2443 2.31818 60.0549 2.74621 59.6761 3.10227C59.3049 3.45833 58.858 3.63636 58.3352 3.63636ZM64.6108 6.54545H67.2926V25.2727C67.2926 26.3485 67.107 27.2803 66.7358 28.0682C66.3722 28.8561 65.8191 29.4659 65.0767 29.8977C64.3419 30.3295 63.4138 30.5455 62.2926 30.5455C62.2017 30.5455 62.1108 30.5455 62.0199 30.5455C61.929 30.5455 61.8381 30.5455 61.7472 30.5455V28.0455C61.8381 28.0455 61.9214 28.0455 61.9972 28.0455C62.0729 28.0455 62.1562 28.0455 62.2472 28.0455C63.0653 28.0455 63.6638 27.803 64.0426 27.3182C64.4214 26.8409 64.6108 26.1591 64.6108 25.2727V6.54545ZM65.929 3.63636C65.4063 3.63636 64.9555 3.45833 64.5767 3.10227C64.2055 2.74621 64.0199 2.31818 64.0199 1.81818C64.0199 1.31818 64.2055 0.890151 64.5767 0.53409C64.9555 0.17803 65.4063 0 65.929 0C66.4517 0 66.8987 0.17803 67.2699 0.53409C67.6487 0.890151 67.8381 1.31818 67.8381 1.81818C67.8381 2.31818 67.6487 2.74621 67.2699 3.10227C66.8987 3.45833 66.4517 3.63636 65.929 3.63636Z" fill="#3200FC"/>
<path d="M25.9205 24.3636C24.3447 24.3636 22.9621 23.9886 21.7727 23.2386C20.5909 22.4886 19.6667 21.4394 19 20.0909C18.3409 18.7424 18.0114 17.1667 18.0114 15.3636C18.0114 13.5455 18.3409 11.9583 19 10.6023C19.6667 9.24621 20.5909 8.19318 21.7727 7.44318C22.9621 6.69318 24.3447 6.31818 25.9205 6.31818C27.4962 6.31818 28.875 6.69318 30.0568 7.44318C31.2462 8.19318 32.1705 9.24621 32.8295 10.6023C33.4962 11.9583 33.8295 13.5455 33.8295 15.3636C33.8295 17.1667 33.4962 18.7424 32.8295 20.0909C32.1705 21.4394 31.2462 22.4886 30.0568 23.2386C28.875 23.9886 27.4962 24.3636 25.9205 24.3636ZM25.9205 21.9545C27.1174 21.9545 28.1023 21.6477 28.875 21.0341C29.6477 20.4205 30.2197 19.6136 30.5909 18.6136C30.9621 17.6136 31.1477 16.5303 31.1477 15.3636C31.1477 14.197 30.9621 13.1098 30.5909 12.1023C30.2197 11.0947 29.6477 10.2803 28.875 9.65909C28.1023 9.03788 27.1174 8.72727 25.9205 8.72727C24.7235 8.72727 23.7386 9.03788 22.9659 9.65909C22.1932 10.2803 21.6212 11.0947 21.25 12.1023C20.8788 13.1098 20.6932 14.197 20.6932 15.3636C20.6932 16.5303 20.8788 17.6136 21.25 18.6136C21.6212 19.6136 22.1932 20.4205 22.9659 21.0341C23.7386 21.6477 24.7235 21.9545 25.9205 21.9545Z" fill="#FF0000"/>
<path d="M45.0142 24.3636C43.4384 24.3636 42.0559 23.9886 40.8665 23.2386C39.6847 22.4886 38.7604 21.4394 38.0938 20.0909C37.4347 18.7424 37.1051 17.1667 37.1051 15.3636C37.1051 13.5455 37.4347 11.9583 38.0938 10.6023C38.7604 9.24621 39.6847 8.19318 40.8665 7.44318C42.0559 6.69318 43.4384 6.31818 45.0142 6.31818C46.59 6.31818 47.9688 6.69318 49.1506 7.44318C50.34 8.19318 51.2642 9.24621 51.9233 10.6023C52.59 11.9583 52.9233 13.5455 52.9233 15.3636C52.9233 17.1667 52.59 18.7424 51.9233 20.0909C51.2642 21.4394 50.34 22.4886 49.1506 23.2386C47.9688 23.9886 46.59 24.3636 45.0142 24.3636ZM45.0142 21.9545C46.2112 21.9545 47.196 21.6477 47.9688 21.0341C48.7415 20.4205 49.3134 19.6136 49.6847 18.6136C50.0559 17.6136 50.2415 16.5303 50.2415 15.3636C50.2415 14.197 50.0559 13.1098 49.6847 12.1023C49.3134 11.0947 48.7415 10.2803 47.9688 9.65909C47.196 9.03788 46.2112 8.72727 45.0142 8.72727C43.8172 8.72727 42.8324 9.03788 42.0597 9.65909C41.2869 10.2803 40.715 11.0947 40.3438 12.1023C39.9725 13.1098 39.7869 14.197 39.7869 15.3636C39.7869 16.5303 39.9725 17.6136 40.3438 18.6136C40.715 19.6136 41.2869 20.4205 42.0597 21.0341C42.8324 21.6477 43.8172 21.9545 45.0142 21.9545Z" fill="#F37500"/>
<path d="M74.8864 0.727272V24H72.2045V0.727272H74.8864Z" fill="#60973F"/>
<path d="M87.1165 24.3636C85.4347 24.3636 83.9839 23.9924 82.7642 23.25C81.5521 22.5 80.6165 21.4545 79.9574 20.1136C79.3059 18.7652 78.9801 17.197 78.9801 15.4091C78.9801 13.6212 79.3059 12.0455 79.9574 10.6818C80.6165 9.31061 81.5331 8.24242 82.7074 7.47727C83.8892 6.70455 85.268 6.31818 86.8438 6.31818C87.7528 6.31818 88.6506 6.4697 89.5369 6.77273C90.4233 7.07576 91.2301 7.56818 91.9574 8.25C92.6847 8.92424 93.2642 9.81818 93.696 10.9318C94.1278 12.0455 94.3438 13.4167 94.3438 15.0455V16.1818H80.8892V13.8636H91.6165C91.6165 12.8788 91.4195 12 91.0256 11.2273C90.6392 10.4545 90.0862 9.8447 89.3665 9.39773C88.6544 8.95076 87.8134 8.72727 86.8438 8.72727C85.7756 8.72727 84.8513 8.99242 84.071 9.52273C83.2983 10.0455 82.7036 10.7273 82.2869 11.5682C81.8703 12.4091 81.6619 13.3106 81.6619 14.2727V15.8182C81.6619 17.1364 81.8892 18.2538 82.3438 19.1705C82.8059 20.0795 83.446 20.7727 84.2642 21.25C85.0824 21.7197 86.0331 21.9545 87.1165 21.9545C87.821 21.9545 88.4574 21.8561 89.0256 21.6591C89.6013 21.4545 90.0975 21.1515 90.5142 20.75C90.9309 20.3409 91.2528 19.8333 91.4801 19.2273L94.071 19.9545C93.7983 20.8333 93.34 21.6061 92.696 22.2727C92.0521 22.9318 91.2566 23.447 90.3097 23.8182C89.3627 24.1818 88.2983 24.3636 87.1165 24.3636Z" fill="#F43B00"/>
</svg>
